<svg width="64" height="64" viewBox="0 0 64 64" fill="none" xmlns="http://www.w3.org/2000/svg">
<path d="M32.2688 1.31202C28.5376 1.31842 25.5104 4.34562 25.5168 8.08322C25.5232 11.8144 28.5504 14.8416 32.2816 14.8416C36.0128 14.8416 39.04 11.8144 39.04 8.07682V8.06402C39.0336 4.32642 36.0064 1.30562 32.2688 1.31202ZM9.95841 16.9344C8.76801 16.9408 7.55841 17.0048 6.42561 17.2928C5.67681 17.4848 4.95361 17.792 4.48641 18.2784C3.89761 18.8864 3.82081 19.7056 4.10881 20.4096C4.36481 21.0304 5.05601 21.4912 5.82401 21.76C7.48161 22.3296 9.31841 22.4448 11.0592 22.8032C11.3792 22.88 11.7376 22.9696 11.936 23.1872C12.1408 23.4496 12.0192 23.808 11.68 23.968C11.1168 24.256 10.3936 24.256 9.73441 24.2496C9.13281 24.224 8.47361 24.1728 7.99361 23.872C7.64161 23.6544 7.57761 23.2896 7.66081 22.9696H3.78241C3.76961 23.5584 3.88481 24.1792 4.32001 24.6848C4.67841 25.12 5.26721 25.4208 5.89441 25.6064C6.89921 25.9008 7.98721 25.9904 9.05601 26.016C10.5088 26.0416 11.9872 25.9968 13.3824 25.6704C14.2144 25.4656 15.0336 25.1392 15.5648 24.608C16.512 23.6608 16.288 22.1568 15.0336 21.4208C14.4064 21.056 13.6576 20.832 12.896 20.6848C11.776 20.4544 10.6368 20.2816 9.51041 20.096C9.11361 20.0192 8.69121 19.9488 8.35841 19.7632C8.00641 19.5776 7.98081 19.136 8.33921 18.9376C8.80001 18.6752 9.41441 18.6816 9.96481 18.6816C10.5472 18.6944 11.1808 18.7264 11.6608 19.0016C11.9296 19.1488 12.0384 19.4048 12.0384 19.648L15.7248 19.6416C15.712 19.1744 15.6224 18.688 15.2832 18.2848C14.8864 17.7856 14.1888 17.472 13.472 17.2928C12.3392 16.9984 11.1424 16.9408 9.95841 16.9344ZM17.9584 17.2096V26.0224H28.7168V24.1024H21.9072V22.3936H27.9808V20.5184H21.9072V19.1168H28.4736L28.4672 17.216L17.9584 17.2096ZM35.68 17.216C35.68 17.216 32.3584 17.216 30.6944 17.216V26.0288H34.4704V20.096L39.6416 26.0224L44.8256 26.0288V17.216H41.0432L41.0496 23.104L35.68 17.216ZM51.5584 17.2288C51.5584 17.2288 47.488 23.1104 45.44 26.0416H49.4016L50.3552 24.4544H56.48L57.3696 26.048H61.7728L55.936 17.2288H51.5584ZM53.5424 19.3344L55.424 22.528L51.5392 22.5344L53.5424 19.3344ZM0.678406 28.5184L0.710406 33.3184L18.6368 33.2544C19.552 33.4528 20.0832 34.048 19.8976 35.3984L8.87041 54.7008L12.4608 58.0608L29.5424 28.5184H0.678406ZM34.8928 28.5568L51.6864 57.9712L55.3984 54.6368L44.2432 35.3856C44.0576 34.0288 44.5888 33.4272 45.504 33.2288L63.4368 33.2928L63.4304 28.576L34.8928 28.5568ZM32.0576 33.4272L16.3072 60.4608L20.4928 62.5024L31.0016 44.736C31.3664 44.4416 31.7312 44.2816 32.096 44.2688C32.48 44.256 32.8768 44.3968 33.2672 44.704L43.7504 62.5216L48.064 60.2688L32.0576 33.4272Z" fill="#39A900"/>
</svg>
